<?xml version="1.0" standalone="no"?><svg xmlns="http://www.w3.org/2000/svg" viewBox="0 0 1440 320"><path fill="#7957d5" fill-opacity="1" d="M0,32L26.7,53.3C53.3,75,107,117,160,144C213.3,171,267,181,320,160C373.3,139,427,85,480,80C533.3,75,587,117,640,144C693.3,171,747,181,800,160C853.3,139,907,85,960,64C1013.3,43,1067,53,1120,85.3C1173.3,117,1227,171,1280,165.3C1333.3,160,1387,96,1413,64L1440,32L1440,320L1413.3,320C1386.7,320,1333,320,1280,320C1226.7,320,1173,320,1120,320C1066.7,320,1013,320,960,320C906.7,320,853,320,800,320C746.7,320,693,320,640,320C586.7,320,533,320,480,320C426.7,320,373,320,320,320C266.7,320,213,320,160,320C106.7,320,53,320,27,320L0,320Z"></path></svg>