<?xml version="1.0" standalone="no"?><svg xmlns="http://www.w3.org/2000/svg" viewBox="0 0 1440 320"><path fill="#7957d5" fill-opacity="1" d="M0,224L18.5,218.7C36.9,213,74,203,111,181.3C147.7,160,185,128,222,112C258.5,96,295,96,332,106.7C369.2,117,406,139,443,133.3C480,128,517,96,554,117.3C590.8,139,628,213,665,224C701.5,235,738,181,775,149.3C812.3,117,849,107,886,117.3C923.1,128,960,160,997,149.3C1033.8,139,1071,85,1108,85.3C1144.6,85,1182,139,1218,149.3C1255.4,160,1292,128,1329,149.3C1366.2,171,1403,245,1422,282.7L1440,320L1440,0L1421.5,0C1403.1,0,1366,0,1329,0C1292.3,0,1255,0,1218,0C1181.5,0,1145,0,1108,0C1070.8,0,1034,0,997,0C960,0,923,0,886,0C849.2,0,812,0,775,0C738.5,0,702,0,665,0C627.7,0,591,0,554,0C516.9,0,480,0,443,0C406.2,0,369,0,332,0C295.4,0,258,0,222,0C184.6,0,148,0,111,0C73.8,0,37,0,18,0L0,0Z"></path></svg>